<svg width="288" height="23" xmlns="http://www.w3.org/2000/svg"><g fill="#212127" fill-rule="nonzero"><path d="M33.978 22.128L.547 3.608l1.58-2.93 33.43 18.52zM69.866 21.633l-33.43-18.52 1.58-2.93 33.43 18.52zM104.455 21.067L71.024 2.547l1.58-2.93 33.43 18.52zM141.262 22.132l-33.43-18.52 1.58-2.93 33.43 18.52zM177.154 21.637l-33.43-18.52 1.58-2.93 33.43 18.52zM211.743 21.07l-33.43-18.52 1.579-2.929 33.43 18.52zM251.11 21.638l-33.431-18.52 1.58-2.929 33.43 18.52zM285.698 21.072l-33.43-18.52 1.58-2.929 33.43 18.52z"/></g></svg>