<?xml version="1.0" encoding="UTF-8"?>
<svg width="155px" height="27px" viewBox="0 0 155 27" version="1.1" xmlns="http://www.w3.org/2000/svg" xmlns:xlink="http://www.w3.org/1999/xlink">
    <!-- Generator: Sketch 64 (93537) - https://sketch.com -->
    <title>Group 11 Copy 3</title>
    <desc>Created with Sketch.</desc>
    <g id="Discover---UI-[WIP]---HANDOFF---april-29-Denise" stroke="none" stroke-width="1" fill="none" fill-rule="evenodd">
        <g id="discover---desktop" transform="translate(-539.000000, -3445.000000)" fill="#EEEEEE">
            <g id="Group-11-Copy-3" transform="translate(610.933779, 3458.347593) scale(1, -1) rotate(45.000000) translate(-610.933779, -3458.347593) translate(551.933779, 3399.847593)">
                <polygon id="Fill-1" points="0.33715165 98.3168482 0.33715165 100.792816 16.5413466 100.792816 16.5413466 116.997011 19.0173142 116.997011 19.0173142 98.3168482"></polygon>
                <polygon id="Fill-2" points="29.9415025 106.073029 27.4651221 106.073029 27.4651221 89.8692467 11.2613399 89.8692467 11.2613399 87.3928663 29.9415025 87.3928663"></polygon>
                <polygon id="Fill-3" points="40.8655876 95.1489438 38.3892072 95.1489438 38.3892072 78.9451616 22.185425 78.9451616 22.185425 76.4687812 40.8655876 76.4687812"></polygon>
                <polygon id="Fill-4" points="51.7896933 84.2248794 49.3133129 84.2248794 49.3133129 68.0210972 33.1095307 68.0210972 33.1095307 65.5447168 51.7896933 65.5447168"></polygon>
                <polygon id="Fill-5" points="62.7137783 73.3007943 60.237398 73.3007943 60.237398 57.0970121 44.0336158 57.0970121 44.0336158 54.6206317 62.7137783 54.6206317"></polygon>
                <polygon id="Fill-6" points="73.6378221 62.376668 71.1614418 62.376668 71.1614418 46.1728857 54.9576595 46.1728857 54.9576595 43.6965054 73.6378221 43.6965054"></polygon>
                <polygon id="Fill-7" points="84.5619278 51.4526035 82.0855475 51.4526035 82.0855475 35.2488213 65.8817653 35.2488213 65.8817653 32.7724409 84.5619278 32.7724409"></polygon>
                <polygon id="Fill-8" points="95.4860129 40.5285184 93.0096325 40.5285184 93.0096325 24.3247362 76.8058503 24.3247362 76.8058503 21.8483559 95.4860129 21.8483559"></polygon>
                <polygon id="Fill-9" points="106.410119 29.604454 103.933738 29.604454 103.933738 13.4006718 87.729956 13.4006718 87.729956 10.9242914 106.410119 10.9242914"></polygon>
                <polygon id="Fill-10" points="98.6539173 8.25460105e-05 98.6539173 2.47605018 114.858112 2.47605018 114.858112 18.6802451 117.33408 18.6802451 117.33408 8.25460105e-05"></polygon>
            </g>
        </g>
    </g>
</svg>